<mxfile host="app.diagrams.net" modified="2024-01-01T22:20:12.469Z" agent="Mozilla/5.0 (Windows NT 10.0; Win64; x64) AppleWebKit/537.36 (KHTML, like Gecko) Chrome/120.0.0.0 Safari/537.36" etag="jKxQeYgyy8LWQqf57yVK" version="22.1.16" type="device">
  <diagram name="PÃ¡gina-1" id="AHgnEtEkGQz4qsDMoYwc">
    <mxGraphModel dx="2625" dy="1468" grid="1" gridSize="10" guides="1" tooltips="1" connect="1" arrows="1" fold="1" page="1" pageScale="1" pageWidth="827" pageHeight="1169" math="0" shadow="0">
      <root>
        <mxCell id="0" />
        <mxCell id="1" parent="0" />
        <mxCell id="Fvpvccran3TEypnIrrUl-1" value="ApproveOrRejectUtenteComponent" style="shape=umlLifeline;perimeter=lifelinePerimeter;whiteSpace=wrap;container=1;dropTarget=0;collapsible=0;recursiveResize=0;outlineConnect=0;portConstraint=eastwest;newEdgeStyle={&quot;edgeStyle&quot;:&quot;elbowEdgeStyle&quot;,&quot;elbow&quot;:&quot;vertical&quot;,&quot;curved&quot;:0,&quot;rounded&quot;:0};size=65;" vertex="1" parent="1">
          <mxGeometry x="300" y="20" width="273" height="620" as="geometry" />
        </mxCell>
        <mxCell id="Fvpvccran3TEypnIrrUl-22" value="" style="html=1;points=[[0,0,0,0,5],[0,1,0,0,-5],[1,0,0,0,5],[1,1,0,0,-5]];perimeter=orthogonalPerimeter;outlineConnect=0;targetShapes=umlLifeline;portConstraint=eastwest;newEdgeStyle={&quot;curved&quot;:0,&quot;rounded&quot;:0};" vertex="1" parent="Fvpvccran3TEypnIrrUl-1">
          <mxGeometry x="131.5" y="90" width="10" height="400" as="geometry" />
        </mxCell>
        <mxCell id="Fvpvccran3TEypnIrrUl-2" value="AuthService" style="shape=umlLifeline;perimeter=lifelinePerimeter;whiteSpace=wrap;container=1;dropTarget=0;collapsible=0;recursiveResize=0;outlineConnect=0;portConstraint=eastwest;newEdgeStyle={&quot;edgeStyle&quot;:&quot;elbowEdgeStyle&quot;,&quot;elbow&quot;:&quot;vertical&quot;,&quot;curved&quot;:0,&quot;rounded&quot;:0};size=65;" vertex="1" parent="1">
          <mxGeometry x="631" y="20" width="150" height="610" as="geometry" />
        </mxCell>
        <mxCell id="Fvpvccran3TEypnIrrUl-28" value="" style="html=1;points=[[0,0,0,0,5],[0,1,0,0,-5],[1,0,0,0,5],[1,1,0,0,-5]];perimeter=orthogonalPerimeter;outlineConnect=0;targetShapes=umlLifeline;portConstraint=eastwest;newEdgeStyle={&quot;curved&quot;:0,&quot;rounded&quot;:0};" vertex="1" parent="Fvpvccran3TEypnIrrUl-2">
          <mxGeometry x="70" y="260" width="10" height="170" as="geometry" />
        </mxCell>
        <mxCell id="Fvpvccran3TEypnIrrUl-3" value="UserModel" style="shape=umlLifeline;perimeter=lifelinePerimeter;whiteSpace=wrap;container=1;dropTarget=0;collapsible=0;recursiveResize=0;outlineConnect=0;portConstraint=eastwest;newEdgeStyle={&quot;edgeStyle&quot;:&quot;elbowEdgeStyle&quot;,&quot;elbow&quot;:&quot;vertical&quot;,&quot;curved&quot;:0,&quot;rounded&quot;:0};size=65;" vertex="1" parent="1">
          <mxGeometry x="848" y="20" width="150" height="580" as="geometry" />
        </mxCell>
        <mxCell id="Fvpvccran3TEypnIrrUl-4" value="MessageService" style="shape=umlLifeline;perimeter=lifelinePerimeter;whiteSpace=wrap;container=1;dropTarget=0;collapsible=0;recursiveResize=0;outlineConnect=0;portConstraint=eastwest;newEdgeStyle={&quot;edgeStyle&quot;:&quot;elbowEdgeStyle&quot;,&quot;elbow&quot;:&quot;vertical&quot;,&quot;curved&quot;:0,&quot;rounded&quot;:0};size=65;" vertex="1" parent="1">
          <mxGeometry x="1048" y="20" width="150" height="580" as="geometry" />
        </mxCell>
        <mxCell id="Fvpvccran3TEypnIrrUl-24" value="" style="html=1;points=[[0,0,0,0,5],[0,1,0,0,-5],[1,0,0,0,5],[1,1,0,0,-5]];perimeter=orthogonalPerimeter;outlineConnect=0;targetShapes=umlLifeline;portConstraint=eastwest;newEdgeStyle={&quot;curved&quot;:0,&quot;rounded&quot;:0};" vertex="1" parent="Fvpvccran3TEypnIrrUl-4">
          <mxGeometry x="72" y="417" width="10" height="60" as="geometry" />
        </mxCell>
        <mxCell id="Fvpvccran3TEypnIrrUl-5" value="listarUtilizadoresPendentes()" style="verticalAlign=bottom;endArrow=block;edgeStyle=elbowEdgeStyle;elbow=vertical;curved=0;rounded=0;" edge="1" parent="1">
          <mxGeometry relative="1" as="geometry">
            <Array as="points">
              <mxPoint x="586.5" y="150" />
            </Array>
            <mxPoint x="441.32352941176487" y="150" as="sourcePoint" />
            <mxPoint x="700" y="150" as="targetPoint" />
          </mxGeometry>
        </mxCell>
        <mxCell id="Fvpvccran3TEypnIrrUl-6" value="return list" style="verticalAlign=bottom;endArrow=block;edgeStyle=elbowEdgeStyle;elbow=vertical;curved=0;rounded=0;dashed=1;dashPattern=2 3;" edge="1" parent="1" source="Fvpvccran3TEypnIrrUl-2" target="Fvpvccran3TEypnIrrUl-1">
          <mxGeometry relative="1" as="geometry">
            <Array as="points">
              <mxPoint x="581" y="231" />
            </Array>
          </mxGeometry>
        </mxCell>
        <mxCell id="Fvpvccran3TEypnIrrUl-7" value="approveOrReject()" style="verticalAlign=bottom;endArrow=block;edgeStyle=elbowEdgeStyle;elbow=vertical;curved=0;rounded=0;" edge="1" parent="1" source="Fvpvccran3TEypnIrrUl-1" target="Fvpvccran3TEypnIrrUl-2">
          <mxGeometry relative="1" as="geometry">
            <Array as="points">
              <mxPoint x="581" y="285" />
            </Array>
          </mxGeometry>
        </mxCell>
        <mxCell id="Fvpvccran3TEypnIrrUl-8" value="create" style="verticalAlign=bottom;endArrow=block;edgeStyle=elbowEdgeStyle;elbow=vertical;curved=0;rounded=0;" edge="1" parent="1" source="Fvpvccran3TEypnIrrUl-2" target="Fvpvccran3TEypnIrrUl-3">
          <mxGeometry relative="1" as="geometry">
            <Array as="points">
              <mxPoint x="824" y="339" />
            </Array>
          </mxGeometry>
        </mxCell>
        <mxCell id="Fvpvccran3TEypnIrrUl-10" value="add(message)" style="verticalAlign=bottom;endArrow=block;edgeStyle=elbowEdgeStyle;elbow=vertical;curved=0;rounded=0;dashed=1;dashPattern=2 3;" edge="1" parent="1" source="Fvpvccran3TEypnIrrUl-4" target="Fvpvccran3TEypnIrrUl-1">
          <mxGeometry relative="1" as="geometry">
            <Array as="points">
              <mxPoint x="790" y="495" />
            </Array>
          </mxGeometry>
        </mxCell>
        <mxCell id="Fvpvccran3TEypnIrrUl-13" value="ApproveOrRejectUtenteComponent" style="shape=umlLifeline;perimeter=lifelinePerimeter;whiteSpace=wrap;container=1;dropTarget=0;collapsible=0;recursiveResize=0;outlineConnect=0;portConstraint=eastwest;newEdgeStyle={&quot;edgeStyle&quot;:&quot;elbowEdgeStyle&quot;,&quot;elbow&quot;:&quot;vertical&quot;,&quot;curved&quot;:0,&quot;rounded&quot;:0};size=65;" vertex="1" parent="1">
          <mxGeometry x="300" y="570" width="273" height="70" as="geometry" />
        </mxCell>
        <mxCell id="Fvpvccran3TEypnIrrUl-14" value="AuthService" style="shape=umlLifeline;perimeter=lifelinePerimeter;whiteSpace=wrap;container=1;dropTarget=0;collapsible=0;recursiveResize=0;outlineConnect=0;portConstraint=eastwest;newEdgeStyle={&quot;edgeStyle&quot;:&quot;elbowEdgeStyle&quot;,&quot;elbow&quot;:&quot;vertical&quot;,&quot;curved&quot;:0,&quot;rounded&quot;:0};size=65;" vertex="1" parent="1">
          <mxGeometry x="631" y="570" width="150" height="70" as="geometry" />
        </mxCell>
        <mxCell id="Fvpvccran3TEypnIrrUl-15" value="UserModel" style="shape=umlLifeline;perimeter=lifelinePerimeter;whiteSpace=wrap;container=1;dropTarget=0;collapsible=0;recursiveResize=0;outlineConnect=0;portConstraint=eastwest;newEdgeStyle={&quot;edgeStyle&quot;:&quot;elbowEdgeStyle&quot;,&quot;elbow&quot;:&quot;vertical&quot;,&quot;curved&quot;:0,&quot;rounded&quot;:0};size=65;" vertex="1" parent="1">
          <mxGeometry x="848" y="570" width="150" height="70" as="geometry" />
        </mxCell>
        <mxCell id="Fvpvccran3TEypnIrrUl-16" value="MessageService" style="shape=umlLifeline;perimeter=lifelinePerimeter;whiteSpace=wrap;container=1;dropTarget=0;collapsible=0;recursiveResize=0;outlineConnect=0;portConstraint=eastwest;newEdgeStyle={&quot;edgeStyle&quot;:&quot;elbowEdgeStyle&quot;,&quot;elbow&quot;:&quot;vertical&quot;,&quot;curved&quot;:0,&quot;rounded&quot;:0};size=65;" vertex="1" parent="1">
          <mxGeometry x="1048" y="570" width="150" height="70" as="geometry" />
        </mxCell>
        <mxCell id="Fvpvccran3TEypnIrrUl-18" value="" style="ellipse;html=1;fillColor=#000000;" vertex="1" parent="1">
          <mxGeometry x="850" y="165" width="10" height="10" as="geometry" />
        </mxCell>
        <mxCell id="Fvpvccran3TEypnIrrUl-21" value="GET" style="verticalAlign=bottom;endArrow=block;edgeStyle=elbowEdgeStyle;elbow=vertical;curved=0;rounded=0;" edge="1" parent="1">
          <mxGeometry relative="1" as="geometry">
            <Array as="points">
              <mxPoint x="829" y="170.2" />
            </Array>
            <mxPoint x="711" y="170.2" as="sourcePoint" />
            <mxPoint x="851" y="170" as="targetPoint" />
          </mxGeometry>
        </mxCell>
        <mxCell id="Fvpvccran3TEypnIrrUl-9" value="log(message)" style="verticalAlign=bottom;endArrow=block;edgeStyle=elbowEdgeStyle;elbow=vertical;curved=0;rounded=0;" edge="1" parent="1">
          <mxGeometry relative="1" as="geometry">
            <Array as="points">
              <mxPoint x="926.43" y="441" />
            </Array>
            <mxPoint x="707.5014285714284" y="441" as="sourcePoint" />
            <mxPoint x="1124.93" y="441" as="targetPoint" />
          </mxGeometry>
        </mxCell>
        <mxCell id="Fvpvccran3TEypnIrrUl-27" value="" style="html=1;points=[[0,0,0,0,5],[0,1,0,0,-5],[1,0,0,0,5],[1,1,0,0,-5]];perimeter=orthogonalPerimeter;outlineConnect=0;targetShapes=umlLifeline;portConstraint=eastwest;newEdgeStyle={&quot;curved&quot;:0,&quot;rounded&quot;:0};" vertex="1" parent="1">
          <mxGeometry x="701" y="140" width="10" height="100" as="geometry" />
        </mxCell>
        <mxCell id="Fvpvccran3TEypnIrrUl-29" value="" style="ellipse;html=1;fillColor=#000000;" vertex="1" parent="1">
          <mxGeometry x="852" y="379" width="10" height="10" as="geometry" />
        </mxCell>
        <mxCell id="Fvpvccran3TEypnIrrUl-30" value="PATCH" style="verticalAlign=bottom;endArrow=block;edgeStyle=elbowEdgeStyle;elbow=vertical;curved=0;rounded=0;" edge="1" parent="1">
          <mxGeometry relative="1" as="geometry">
            <Array as="points">
              <mxPoint x="829" y="384.61" />
            </Array>
            <mxPoint x="711" y="384.61" as="sourcePoint" />
            <mxPoint x="851" y="384.41" as="targetPoint" />
          </mxGeometry>
        </mxCell>
        <mxCell id="Fvpvccran3TEypnIrrUl-31" value="Admin" style="shape=umlActor;verticalLabelPosition=bottom;verticalAlign=top;html=1;outlineConnect=0;" vertex="1" parent="1">
          <mxGeometry x="190" y="40" width="30" height="60" as="geometry" />
        </mxCell>
        <mxCell id="Fvpvccran3TEypnIrrUl-32" value="Admin" style="shape=umlActor;verticalLabelPosition=bottom;verticalAlign=top;html=1;outlineConnect=0;" vertex="1" parent="1">
          <mxGeometry x="180" y="455" width="30" height="60" as="geometry" />
        </mxCell>
        <mxCell id="Fvpvccran3TEypnIrrUl-33" value="" style="endArrow=none;dashed=1;html=1;strokeWidth=1;rounded=0;dashPattern=1 1;" edge="1" parent="1">
          <mxGeometry width="50" height="50" relative="1" as="geometry">
            <mxPoint x="200" y="450" as="sourcePoint" />
            <mxPoint x="200" y="120" as="targetPoint" />
          </mxGeometry>
        </mxCell>
        <mxCell id="Fvpvccran3TEypnIrrUl-34" value="escolhe o utilizador a rejeitar ou aceitar" style="verticalAlign=bottom;endArrow=block;edgeStyle=elbowEdgeStyle;elbow=vertical;curved=0;rounded=0;" edge="1" parent="1">
          <mxGeometry relative="1" as="geometry">
            <Array as="points">
              <mxPoint x="311.18" y="256" />
            </Array>
            <mxPoint x="200.00352941176487" y="256" as="sourcePoint" />
            <mxPoint x="436.0000000000002" y="256.0000000000001" as="targetPoint" />
          </mxGeometry>
        </mxCell>
        <mxCell id="Fvpvccran3TEypnIrrUl-35" value="add(message)" style="verticalAlign=bottom;endArrow=block;edgeStyle=elbowEdgeStyle;elbow=vertical;curved=0;rounded=0;dashed=1;dashPattern=2 3;" edge="1" parent="1" source="Fvpvccran3TEypnIrrUl-22">
          <mxGeometry relative="1" as="geometry">
            <Array as="points" />
            <mxPoint x="396" y="388.24" as="sourcePoint" />
            <mxPoint x="200" y="388.24" as="targetPoint" />
          </mxGeometry>
        </mxCell>
      </root>
    </mxGraphModel>
  </diagram>
</mxfile>
